<svg version="1.1" id="Layer_1" xmlns="http://www.w3.org/2000/svg" xmlns:xlink="http://www.w3.org/1999/xlink" x="0px" y="0px"

	 viewBox="0 0 759.8 219.8" style="enable-background:new 0 0 759.8 219.8;" xml:space="preserve">

  <clipPath id="left-to-right">

     <rect x="0" y="0" width="0" height="100%" >

       <animate attributeName="width" values="0;100%" dur="10s" fill="freeze" repeatCount="indefinite" />   

     </rect>

    </clipPath>

  <g>

	<polygon class="s10" points="114.6,53 88,53 58,88.7 27.9,53 1,53 43.8,105 0.8,157 28,157 58,121.2 140.6,220 166,220 166.9,220 

		71.6,105 	"/>

	<path class="s10" d="M148.3,75.1c0,0,14.1-6.3,28.6,2.7c0,0,5.4,3.1,9.5,9.5l16.9-12.4c0,0-13.9-22.4-43.1-22.7

		s-43.9,23.9-43.9,23.9s-25.7,35.7,10.5,68.4c36.2,32.7,73.4-2.8,76.5-9.8l-16.9-12.9c0,0-14.9,23.9-41.1,10.5

		c0,0-18.7-10.1-16.7-30.4S148.3,75.1,148.3,75.1z"/>

	<path class="s10" d="M298.4,67.3c-12.3-12.2-30.9-17.6-47.8-14c-15,3.2-28.2,13.5-35.3,26.9c-7.9,14.9-8.1,33.4-0.5,48.4

		c0.5,1,1,2,1.6,2.9c8.1,13.6,22.7,23.2,38.5,25.1c15.7,1.9,32.3-3.8,43.4-15.1c-4.9-5-9.8-10-14.6-14.9c-7.4,7.5-18.8,10.8-29,8.4

		c-10.3-2.3-19.1-10.2-22.6-20.1c26.9,0,53.8,0,80.6,0c3.2-15.2-1-31.6-10.7-43.7C300.9,69.9,299.7,68.5,298.4,67.3z M232.2,94

		l0.1-0.4c0,0,6.2-17.6,24.7-20.4c0,0,23.8-4.1,33.7,20.4l0.2,0.4H232.2z"/>

	<rect x="326" class="s10" width="21" height="157"/>

	<path class="s10" d="M426,54c-28.8-7.3-45,9-45,9V52h-22v168h21v-73.9c15,11.5,32.9,10.9,32.9,10.9s22.7,0.8,40.4-21

		c17.7-21.8,8.5-47.5,8.5-47.5S454.8,61.3,426,54z M412,135.7c-17.1,0-31-13.9-31-31c0-17.1,13.9-31,31-31c17.1,0,31,13.9,31,31

		C443,121.8,429.1,135.7,412,135.7z"/>

	<path class="s10" d="M497.9,64.9c0-4.3,0-8.9,0.1-12.9c-0.9,0-1.9,0-2.8,0c-5.2,0-10.3,0-15.5,0c-0.7,0-3.2-0.4-3.7,0.1

		c-0.4,0.4,0,3,0,3.6c0,2.6,0,5.2,0,7.8c0,10.4,0,20.8,0,31.3c0,5.2,0,62.2,0,62.2c7,0,14,0,21,0c0-15,0-30.9,0-46.4

		c0-3.3,0-6.7,0.6-10c1.6-9.1,7.7-17.1,15.7-21.7c7.6-4.5,16.8-6,25.6-5c0.4,0,0.7,0.1,1.1,0.1c0-7.1,0-14.2,0-21.3

		C525.1,51,509.6,55.5,497.9,64.9z"/>

	<path class="s10" d="M599.3,52.1c-29.1,0-52.8,23.4-52.8,52.4s23.6,52.4,52.8,52.4s52.8-23.4,52.8-52.4S628.4,52.1,599.3,52.1z

		 M599.6,135.7c-17.2,0-31.1-13.9-31.1-31.1s13.9-31.1,31.1-31.1c17.2,0,31.1,13.9,31.1,31.1S616.8,135.7,599.6,135.7z"/>

	<path class="s10" d="M693.1,52c-12.4,0-19.6,8.6-19.6,8.6c-17.4,20.3-4.8,40.2-4.8,40.2C678.2,115.4,693,115,693,115s22.1,0,33.8,0

		s10.9,10,10.9,10c0.5,11.3-9.6,11-9.6,11h-63v21h64c0,0,21.6-0.9,27.6-19.8s-1.9-28.1-7.8-35c-6-6.9-22.8-8.2-22.8-8.2h-30

		c-12.6,0-10.9-10.7-10.9-10.7C685.2,71.5,697,73,697,73h62V53v-1C759,52,705.6,52,693.1,52z"/>

</g>

<g fill="#ff5a5f" clip-path="url(#left-to-right)">

	<polygon class="s10" points="114.6,53 88,53 58,88.7 27.9,53 1,53 43.8,105 0.8,157 28,157 58,121.2 140.6,220 166,220 166.9,220 

		71.6,105 	"/>

	<path class="s10" d="M148.3,75.1c0,0,14.1-6.3,28.6,2.7c0,0,5.4,3.1,9.5,9.5l16.9-12.4c0,0-13.9-22.4-43.1-22.7

		s-43.9,23.9-43.9,23.9s-25.7,35.7,10.5,68.4c36.2,32.7,73.4-2.8,76.5-9.8l-16.9-12.9c0,0-14.9,23.9-41.1,10.5

		c0,0-18.7-10.1-16.7-30.4S148.3,75.1,148.3,75.1z"/>

	<path class="s10" d="M298.4,67.3c-12.3-12.2-30.9-17.6-47.8-14c-15,3.2-28.2,13.5-35.3,26.9c-7.9,14.9-8.1,33.4-0.5,48.4

		c0.5,1,1,2,1.6,2.9c8.1,13.6,22.7,23.2,38.5,25.1c15.7,1.9,32.3-3.8,43.4-15.1c-4.9-5-9.8-10-14.6-14.9c-7.4,7.5-18.8,10.8-29,8.4

		c-10.3-2.3-19.1-10.2-22.6-20.1c26.9,0,53.8,0,80.6,0c3.2-15.2-1-31.6-10.7-43.7C300.9,69.9,299.7,68.5,298.4,67.3z M232.2,94

		l0.1-0.4c0,0,6.2-17.6,24.7-20.4c0,0,23.8-4.1,33.7,20.4l0.2,0.4H232.2z"/>

	<rect x="326" class="s10" width="21" height="157"/>

	<path class="s10" d="M426,54c-28.8-7.3-45,9-45,9V52h-22v168h21v-73.9c15,11.5,32.9,10.9,32.9,10.9s22.7,0.8,40.4-21

		c17.7-21.8,8.5-47.5,8.5-47.5S454.8,61.3,426,54z M412,135.7c-17.1,0-31-13.9-31-31c0-17.1,13.9-31,31-31c17.1,0,31,13.9,31,31

		C443,121.8,429.1,135.7,412,135.7z"/>

	<path class="s10" d="M497.9,64.9c0-4.3,0-8.9,0.1-12.9c-0.9,0-1.9,0-2.8,0c-5.2,0-10.3,0-15.5,0c-0.7,0-3.2-0.4-3.7,0.1

		c-0.4,0.4,0,3,0,3.6c0,2.6,0,5.2,0,7.8c0,10.4,0,20.8,0,31.3c0,5.2,0,62.2,0,62.2c7,0,14,0,21,0c0-15,0-30.9,0-46.4

		c0-3.3,0-6.7,0.6-10c1.6-9.1,7.7-17.1,15.7-21.7c7.6-4.5,16.8-6,25.6-5c0.4,0,0.7,0.1,1.1,0.1c0-7.1,0-14.2,0-21.3

		C525.1,51,509.6,55.5,497.9,64.9z"/>

	<path class="s10" d="M599.3,52.1c-29.1,0-52.8,23.4-52.8,52.4s23.6,52.4,52.8,52.4s52.8-23.4,52.8-52.4S628.4,52.1,599.3,52.1z

		 M599.6,135.7c-17.2,0-31.1-13.9-31.1-31.1s13.9-31.1,31.1-31.1c17.2,0,31.1,13.9,31.1,31.1S616.8,135.7,599.6,135.7z"/>

	<path class="s10" d="M693.1,52c-12.4,0-19.6,8.6-19.6,8.6c-17.4,20.3-4.8,40.2-4.8,40.2C678.2,115.4,693,115,693,115s22.1,0,33.8,0

		s10.9,10,10.9,10c0.5,11.3-9.6,11-9.6,11h-63v21h64c0,0,21.6-0.9,27.6-19.8s-1.9-28.1-7.8-35c-6-6.9-22.8-8.2-22.8-8.2h-30

		c-12.6,0-10.9-10.7-10.9-10.7C685.2,71.5,697,73,697,73h62V53v-1C759,52,705.6,52,693.1,52z"/>

</g>

</svg>

